<?xml version="1.0" encoding="UTF-8"?>
<svg xmlns="http://www.w3.org/2000/svg" xmlns:xlink="http://www.w3.org/1999/xlink" width="345pt" height="75pt" viewBox="0 0 345 75" version="1.1">
<g id="surface1">
<path style=" stroke:none;fill-rule:nonzero;fill:rgb(100%,100%,100%);fill-opacity:1;" d="M 165.726562 6.25 L 5.210938 6.25 L 5.210938 69.792969 L 165.726562 69.792969 Z M 165.726562 6.25 "/>
<path style=" stroke:none;fill-rule:evenodd;fill:rgb(85.098039%,12.941176%,24.705882%);fill-opacity:1;" d="M 165.316406 0.757812 L 6.199219 0.757812 C 2.859375 0.757812 0.152344 3.46875 0.152344 6.804688 L 0.152344 68.046875 C 0.152344 71.386719 2.859375 74.089844 6.199219 74.089844 L 165.316406 74.089844 C 168.660156 74.089844 171.367188 71.386719 171.367188 68.046875 L 171.367188 6.804688 C 171.367188 3.46875 168.660156 0.757812 165.316406 0.757812 Z M 162.429688 60.457031 C 162.347656 63.136719 159.835938 65.304688 157.222656 65.359375 C 150.453125 65.363281 143.683594 65.359375 136.914062 65.363281 C 132.453125 65.53125 127.902344 64.910156 123.804688 63.082031 C 118.242188 60.609375 113.699219 56.050781 111.039062 50.597656 C 109.585938 47.585938 108.746094 44.289062 108.484375 40.960938 C 108.257812 37.808594 108.414062 34.617188 109.128906 31.53125 C 109.835938 28.445312 111.101562 25.476562 112.878906 22.851562 C 115.789062 18.589844 119.929688 15.113281 124.773438 13.269531 C 127.269531 12.28125 129.925781 11.738281 132.59375 11.503906 C 135.007812 11.339844 137.441406 11.347656 139.835938 11.691406 C 143.425781 12.191406 146.929688 13.410156 150.003906 15.347656 C 152.878906 17.144531 155.414062 19.484375 157.390625 22.238281 C 159.703125 25.414062 161.277344 29.125 161.96875 32.992188 C 162.230469 34.433594 162.363281 35.902344 162.421875 37.363281 C 162.464844 38.296875 162.398438 39.238281 162.4375 40.175781 C 162.429688 46.9375 162.441406 53.699219 162.429688 60.457031 Z M 81.449219 48.058594 C 79.222656 54.433594 74.394531 59.863281 68.296875 62.78125 C 64.644531 64.539062 60.578125 65.316406 56.546875 65.386719 C 52.207031 65.441406 47.800781 64.722656 43.859375 62.847656 C 38.988281 60.554688 34.953125 56.636719 32.3125 51.957031 C 30.40625 48.566406 29.328125 44.742188 29.039062 40.867188 C 28.75 36.777344 29.136719 32.605469 30.503906 28.722656 C 31.601562 25.550781 33.339844 22.601562 35.585938 20.105469 C 37.996094 17.382812 40.976562 15.140625 44.316406 13.6875 C 47.089844 12.457031 50.082031 11.777344 53.097656 11.507812 C 56.160156 11.289062 59.269531 11.371094 62.277344 12.027344 C 65.625 12.71875 68.835938 14.09375 71.644531 16.054688 C 74.699219 18.171875 77.300781 20.9375 79.207031 24.132812 C 81.183594 27.414062 82.40625 31.132812 82.808594 34.9375 C 83.277344 39.339844 82.886719 43.859375 81.449219 48.058594 Z M 100.601562 65.785156 C 91.011719 65.785156 89.941406 60.386719 89.941406 54.429688 L 89.941406 16.65625 C 89.941406 13.503906 92.5 10.949219 95.65625 10.949219 C 98.8125 10.949219 101.371094 13.503906 101.371094 16.65625 L 101.371094 54.429688 C 104.164062 54.429688 106.316406 57.21875 106.316406 60.074219 C 106.316406 63.230469 103.757812 65.785156 100.601562 65.785156 Z M 21.140625 65.785156 C 11.546875 65.785156 10.476562 60.386719 10.476562 54.429688 L 10.476562 16.65625 C 10.476562 13.503906 13.039062 10.949219 16.191406 10.949219 C 19.351562 10.949219 21.90625 13.503906 21.90625 16.65625 L 21.90625 54.429688 C 24.703125 54.429688 26.855469 57.21875 26.855469 60.074219 C 26.855469 63.230469 24.292969 65.785156 21.140625 65.785156 Z M 21.140625 65.785156 "/>
<path style=" stroke:none;fill-rule:evenodd;fill:rgb(85.098039%,12.941176%,24.705882%);fill-opacity:1;" d="M 134.332031 21.375 C 136.488281 21.265625 138.667969 21.503906 140.71875 22.195312 C 144.082031 23.296875 147.039062 25.519531 149.128906 28.363281 C 151.027344 30.941406 152.183594 34.058594 152.367188 37.261719 C 152.628906 40.96875 151.632812 44.753906 149.539062 47.832031 C 147.632812 50.660156 144.898438 52.949219 141.71875 54.207031 C 137.6875 55.84375 133.027344 55.84375 128.992188 54.21875 C 125.554688 52.847656 122.628906 50.292969 120.722656 47.136719 C 119.214844 44.671875 118.367188 41.808594 118.308594 38.917969 C 118.195312 35.769531 118.964844 32.585938 120.585938 29.875 C 121.71875 27.882812 123.300781 26.175781 125.097656 24.765625 C 127.746094 22.75 131.003906 21.539062 134.332031 21.375 Z M 137.3125 45.761719 C 139.859375 45.113281 141.964844 43.023438 142.671875 40.5 C 143.144531 38.882812 143.050781 37.109375 142.425781 35.546875 C 141.820312 34.058594 140.726562 32.773438 139.371094 31.90625 C 138.003906 31.035156 136.351562 30.652344 134.738281 30.777344 C 132.105469 30.929688 129.6875 32.621094 128.503906 34.953125 C 127.296875 37.273438 127.429688 40.230469 128.84375 42.429688 C 129.589844 43.597656 130.632812 44.589844 131.882812 45.210938 C 133.539062 46.054688 135.519531 46.265625 137.3125 45.761719 Z M 137.3125 45.761719 "/>
<path style=" stroke:none;fill-rule:evenodd;fill:rgb(85.098039%,12.941176%,24.705882%);fill-opacity:1;" d="M 68.191406 26.589844 C 70.679688 29.164062 72.363281 32.527344 72.8125 36.085938 C 73.285156 39.585938 72.671875 43.242188 70.988281 46.351562 C 69.222656 49.636719 66.394531 52.363281 62.992188 53.902344 C 59.324219 55.59375 55.050781 55.886719 51.171875 54.777344 C 45.839844 53.28125 41.433594 48.96875 39.703125 43.722656 C 38.546875 40.21875 38.570312 36.335938 39.769531 32.847656 C 41.398438 28.15625 45.152344 24.234375 49.796875 22.457031 C 51.410156 21.851562 53.113281 21.46875 54.832031 21.378906 C 56.167969 21.335938 57.519531 21.339844 58.835938 21.589844 C 62.390625 22.179688 65.71875 23.980469 68.191406 26.589844 Z M 62.085938 42.859375 C 63.597656 40.8125 63.957031 37.992188 63.019531 35.628906 C 62.460938 34.195312 61.449219 32.960938 60.195312 32.082031 C 58.675781 31.027344 56.769531 30.578125 54.933594 30.8125 C 53.230469 31.003906 51.609375 31.824219 50.425781 33.0625 C 49.148438 34.355469 48.339844 36.117188 48.261719 37.9375 C 48.164062 39.472656 48.535156 41.039062 49.351562 42.347656 C 50.375 44.007812 52.027344 45.292969 53.929688 45.773438 C 55.644531 46.246094 57.519531 46.0625 59.128906 45.308594 C 60.3125 44.773438 61.320312 43.898438 62.085938 42.859375 Z M 62.085938 42.859375 "/>
<path style=" stroke:none;fill-rule:evenodd;fill:rgb(100%,100%,100%);fill-opacity:1;" d="M 218.699219 19.847656 L 208.320312 19.847656 L 208.320312 11.449219 L 238.671875 11.449219 L 238.671875 19.847656 L 228.292969 19.847656 L 228.292969 46.035156 L 218.699219 46.035156 Z M 218.699219 19.847656 "/>
<path style=" stroke:none;fill-rule:evenodd;fill:rgb(100%,100%,100%);fill-opacity:1;" d="M 243.011719 11.449219 L 270.84375 11.449219 L 270.84375 19.597656 L 252.503906 19.597656 L 252.503906 24.835938 L 269.109375 24.835938 L 269.109375 32.394531 L 252.503906 32.394531 L 252.503906 37.882812 L 271.089844 37.882812 L 271.089844 46.03125 L 243.011719 46.03125 Z M 243.011719 11.449219 "/>
<path style=" stroke:none;fill-rule:evenodd;fill:rgb(100%,100%,100%);fill-opacity:1;" d="M 275.4375 28.839844 L 275.4375 28.738281 C 275.4375 18.664062 283.199219 10.757812 293.679688 10.757812 C 300.75 10.757812 305.300781 13.722656 308.363281 17.96875 L 301.148438 23.550781 C 299.167969 21.085938 296.890625 19.5 293.582031 19.5 C 288.734375 19.5 285.324219 23.605469 285.324219 28.640625 L 285.324219 28.738281 C 285.324219 33.925781 288.734375 37.980469 293.582031 37.980469 C 297.191406 37.980469 299.316406 36.300781 301.394531 33.78125 L 308.609375 38.917969 C 305.347656 43.414062 300.945312 46.722656 293.285156 46.722656 C 283.398438 46.722656 275.4375 39.167969 275.4375 28.839844 Z M 275.4375 28.839844 "/>
<path style=" stroke:none;fill-rule:evenodd;fill:rgb(100%,100%,100%);fill-opacity:1;" d="M 313.308594 11.449219 L 322.898438 11.449219 L 322.898438 24.394531 L 335.207031 24.394531 L 335.207031 11.449219 L 344.796875 11.449219 L 344.796875 46.03125 L 335.207031 46.03125 L 335.207031 32.890625 L 322.898438 32.890625 L 322.898438 46.03125 L 313.308594 46.03125 Z M 313.308594 11.449219 "/>
<path style=" stroke:none;fill-rule:evenodd;fill:rgb(100%,100%,100%);fill-opacity:1;" d="M 197.320312 32.050781 C 195.796875 30.996094 193.886719 30.542969 192.050781 30.773438 C 190.339844 30.96875 188.71875 31.792969 187.53125 33.035156 C 186.253906 34.328125 185.4375 36.09375 185.359375 37.917969 C 185.265625 39.460938 185.636719 41.027344 186.453125 42.339844 C 187.480469 44.003906 189.136719 45.292969 191.039062 45.773438 C 192.761719 46.246094 194.640625 46.0625 196.25 45.308594 C 197.4375 44.773438 198.449219 43.894531 199.214844 42.847656 C 200.730469 40.800781 201.085938 37.972656 200.148438 35.605469 C 199.59375 34.171875 198.578125 32.929688 197.320312 32.050781 Z M 197.320312 32.050781 "/>
</g>
</svg>
