<?xml version="1.0" encoding="UTF-8"?>
<svg xmlns="http://www.w3.org/2000/svg" xmlns:xlink="http://www.w3.org/1999/xlink" width="32pt" height="32pt" viewBox="0 0 32 32" version="1.1">
<g id="surface1">
<path style=" stroke:none;fill-rule:nonzero;fill:rgb(85.098039%,12.941176%,24.705882%);fill-opacity:1;" d="M 0 16 L 0 32 L 32 32 L 32 0 L 0 0 Z M 19.386719 4.039062 C 20.875 4.488281 21.675781 4.863281 22.824219 5.636719 C 25.261719 7.273438 26.925781 9.648438 27.726562 12.625 C 28.050781 13.8125 28.050781 13.835938 28.101562 19.8125 C 28.125 24.074219 28.101562 25.949219 28 26.289062 C 27.824219 26.898438 27.101562 27.699219 26.574219 27.875 C 26.3125 27.960938 24.039062 28.011719 20.175781 28.039062 C 14.476562 28.0625 14.125 28.050781 13 27.800781 C 9.351562 26.988281 6.363281 24.613281 4.8125 21.3125 C 3.875 19.335938 3.6875 18.414062 3.6875 15.8125 C 3.6875 13.851562 3.726562 13.425781 3.976562 12.5 C 5.226562 7.925781 8.6875 4.675781 13.238281 3.8125 C 13.898438 3.6875 14.8125 3.648438 16.25 3.675781 C 18.023438 3.710938 18.460938 3.761719 19.386719 4.039062 Z M 19.386719 4.039062 "/>
<path style=" stroke:none;fill-rule:nonzero;fill:rgb(85.098039%,12.941176%,24.705882%);fill-opacity:1;" d="M 14.199219 8.949219 C 10.699219 9.800781 8.175781 13.261719 8.425781 16.875 C 8.511719 18.148438 8.710938 18.835938 9.335938 20.023438 C 10.238281 21.75 11.773438 23.050781 13.6875 23.699219 C 15.023438 24.164062 16.976562 24.199219 18.3125 23.789062 C 20.675781 23.039062 22.574219 21.199219 23.386719 18.875 C 23.761719 17.773438 23.863281 15.75 23.574219 14.613281 C 22.875 11.835938 20.699219 9.636719 17.9375 8.9375 C 17.023438 8.699219 15.1875 8.710938 14.199219 8.949219 Z M 17.449219 13.238281 C 18.75 13.824219 19.5 14.988281 19.5 16.398438 C 19.5 16.875 19.414062 17.460938 19.3125 17.699219 C 18.386719 19.914062 15.523438 20.5625 13.773438 18.960938 C 13.074219 18.3125 12.738281 17.636719 12.664062 16.726562 C 12.574219 15.800781 12.789062 15.0625 13.351562 14.3125 C 14.023438 13.425781 14.898438 13 16.050781 13 C 16.636719 13 17.113281 13.085938 17.449219 13.238281 Z M 17.449219 13.238281 "/>
</g>
</svg>
